# xmcd
# 
# Track frame offsets:
#     150
#     22465
#     39810
#     62437
#     85507
#     107922
#     126937
#     145682
#     170587
#     192630
#     215470
#     233682
# 
# Disc length: 3440
# 
# Revision: 5
# Processed by: cddbd v1.5.2PL0 Copyright (c) Steve Scherf et al.
# Submitted via: BonkEnc v1.0.5
# 
DISCID=a40d6e0c
DTITLE=田村直美 - N'
DYEAR=1995
DGENRE=Japanese Rock
TTITLE0=CARRY ON
TTITLE1=ゆずれない願い
TTITLE2=NAKED LOVE
TTITLE3=ママの恋人
TTITLE4=ONE
TTITLE5=すべての未来に光りあれ
TTITLE6=地上に舞い降りた天使たち
TTITLE7=AGAIN
TTITLE8=SILVER SPOON
TTITLE9=STAIRWAY(Complete Version)
TTITLE10=Beatlesも戦争も知らないけれど
TTITLE11=千の祈り
EXTD=YEAR: 1995
EXTT0=
EXTT1=
EXTT2=
EXTT3=
EXTT4=
EXTT5=
EXTT6=
EXTT7=
EXTT8=
EXTT9=
EXTT10=
EXTT11=
PLAYORDER=
